<?xml version="1.0" encoding="utf-8"?>
<!-- Generator: Adobe Illustrator 19.2.1, SVG Export Plug-In . SVG Version: 6.00 Build 0)  -->
<svg version="1.1" xmlns="http://www.w3.org/2000/svg" xmlns:xlink="http://www.w3.org/1999/xlink" x="0px" y="0px"
	 viewBox="0 0 512 512" style="enable-background:new 0 0 512 512;" xml:space="preserve">
<style type="text/css">
	.st0{fill:#3F3F3F;}
	.st1{display:none;fill:#3F3F3F;}
</style>
<g id="Capa_1">
	<g>
		<path class="st0" d="M236.8,252.8c1.9,0,3.4-1.5,3.4-3.4c0-1.9-1.5-3.4-3.4-3.4s-3.4,1.5-3.4,3.4
			C233.4,251.3,234.9,252.8,236.8,252.8z M236.8,246.8c1.4,0,2.6,1.2,2.6,2.6s-1.2,2.6-2.6,2.6c-1.4,0-2.6-1.2-2.6-2.6
			C234.2,248,235.3,246.8,236.8,246.8z"/>
		<path class="st0" d="M245.7,252.8c1.9,0,3.4-1.5,3.4-3.4c0-1.9-1.5-3.4-3.4-3.4s-3.4,1.5-3.4,3.4
			C242.3,251.3,243.8,252.8,245.7,252.8z M245.7,246.8c1.4,0,2.6,1.2,2.6,2.6s-1.2,2.6-2.6,2.6c-1.4,0-2.6-1.2-2.6-2.6
			C243.1,248,244.3,246.8,245.7,246.8z"/>
		<path class="st0" d="M250.1,257.3c0.1,0.1,0.2,0.2,0.3,0.2c0.1,0,0.2,0,0.2-0.1c0.2-0.1,0.2-0.4,0.1-0.6c-1.2-1.6-3.1-2.5-5-2.5
			c-1.3,0-2.5,0.4-3.6,1.1c-0.2,0.1-0.2,0.4-0.1,0.6c0.1,0.2,0.4,0.2,0.6,0.1c0.9-0.6,2-0.9,3.1-0.9
			C247.4,255.2,249,255.9,250.1,257.3z"/>
		<path class="st0" d="M236.8,254.3c-3.5,0-6.4,2.9-6.4,6.4c0,0.2,0.2,0.4,0.4,0.4s0.4-0.2,0.4-0.4c0-3.1,2.5-5.6,5.6-5.6
			c3.1,0,5.6,2.5,5.6,5.6c0,0.2,0.2,0.4,0.4,0.4s0.4-0.2,0.4-0.4C243.1,257.2,240.3,254.3,236.8,254.3z"/>
		<path class="st0" d="M251.7,258.1c-2.2,0-3.9,1.8-3.9,3.9s1.8,3.9,3.9,3.9s3.9-1.8,3.9-3.9S253.8,258.1,251.7,258.1z M251.7,265.2
			c-1.7,0-3.1-1.4-3.1-3.1s1.4-3.1,3.1-3.1c1.7,0,3.1,1.4,3.1,3.1S253.4,265.2,251.7,265.2z"/>
		<path class="st0" d="M253,261.7h-0.9v-0.9c0-0.2-0.2-0.4-0.4-0.4s-0.4,0.2-0.4,0.4v0.9h-0.9c-0.2,0-0.4,0.2-0.4,0.4
			s0.2,0.4,0.4,0.4h0.9v0.9c0,0.2,0.2,0.4,0.4,0.4s0.4-0.2,0.4-0.4v-0.9h0.9c0.2,0,0.4-0.2,0.4-0.4S253.3,261.7,253,261.7z"/>
	</g>
</g>
<g id="Layer_2">
	<g>
		<path class="st0" d="M763.8,482.8c1.9,0,3.4-1.5,3.4-3.4s-1.5-3.4-3.4-3.4s-3.4,1.5-3.4,3.4S761.9,482.8,763.8,482.8z
			 M763.8,476.8c1.4,0,2.6,1.2,2.6,2.6s-1.2,2.6-2.6,2.6c-1.4,0-2.6-1.2-2.6-2.6S762.3,476.8,763.8,476.8z"/>
		<path class="st0" d="M772.7,482.8c1.9,0,3.4-1.5,3.4-3.4s-1.5-3.4-3.4-3.4s-3.4,1.5-3.4,3.4S770.8,482.8,772.7,482.8z
			 M772.7,476.8c1.4,0,2.6,1.2,2.6,2.6s-1.2,2.6-2.6,2.6s-2.6-1.2-2.6-2.6S771.3,476.8,772.7,476.8z"/>
		<path class="st0" d="M777.1,487.3c0.1,0.1,0.2,0.2,0.3,0.2c0.1,0,0.2,0,0.2-0.1c0.2-0.1,0.2-0.4,0.1-0.6c-1.2-1.6-3.1-2.5-5-2.5
			c-1.3,0-2.5,0.4-3.6,1.1c-0.2,0.1-0.2,0.4-0.1,0.6c0.1,0.2,0.4,0.2,0.6,0.1c0.9-0.6,2-0.9,3.1-0.9
			C774.4,485.2,776,485.9,777.1,487.3z"/>
		<path class="st0" d="M763.8,484.3c-3.5,0-6.4,2.9-6.4,6.4c0,0.2,0.2,0.4,0.4,0.4s0.4-0.2,0.4-0.4c0-3.1,2.5-5.6,5.6-5.6
			c3.1,0,5.6,2.5,5.6,5.6c0,0.2,0.2,0.4,0.4,0.4s0.4-0.2,0.4-0.4C770.1,487.2,767.3,484.3,763.8,484.3z"/>
		<path class="st0" d="M778.7,488.1c-2.2,0-3.9,1.8-3.9,3.9s1.8,3.9,3.9,3.9c2.2,0,3.9-1.8,3.9-3.9S780.8,488.1,778.7,488.1z
			 M778.7,495.2c-1.7,0-3.1-1.4-3.1-3.1s1.4-3.1,3.1-3.1c1.7,0,3.1,1.4,3.1,3.1S780.4,495.2,778.7,495.2z"/>
		<path class="st0" d="M780,491.7h-0.9v-0.9c0-0.2-0.2-0.4-0.4-0.4c-0.2,0-0.4,0.2-0.4,0.4v0.9h-0.9c-0.2,0-0.4,0.2-0.4,0.4
			s0.2,0.4,0.4,0.4h0.9v0.9c0,0.2,0.2,0.4,0.4,0.4c0.2,0,0.4-0.2,0.4-0.4v-0.9h0.9c0.2,0,0.4-0.2,0.4-0.4S780.3,491.7,780,491.7z"/>
	</g>
</g>
<g id="Layer_3">
	<g>
		<path class="st1" d="M763.8,482.8c1.9,0,3.4-1.5,3.4-3.4s-1.5-3.4-3.4-3.4s-3.4,1.5-3.4,3.4S761.9,482.8,763.8,482.8z
			 M763.8,476.8c1.4,0,2.6,1.2,2.6,2.6s-1.2,2.6-2.6,2.6c-1.4,0-2.6-1.2-2.6-2.6S762.3,476.8,763.8,476.8z"/>
		<path class="st1" d="M772.7,482.8c1.9,0,3.4-1.5,3.4-3.4s-1.5-3.4-3.4-3.4s-3.4,1.5-3.4,3.4S770.8,482.8,772.7,482.8z
			 M772.7,476.8c1.4,0,2.6,1.2,2.6,2.6s-1.2,2.6-2.6,2.6s-2.6-1.2-2.6-2.6S771.3,476.8,772.7,476.8z"/>
		<path class="st1" d="M777.1,487.3c0.1,0.1,0.2,0.2,0.3,0.2c0.1,0,0.2,0,0.2-0.1c0.2-0.1,0.2-0.4,0.1-0.6c-1.2-1.6-3.1-2.5-5-2.5
			c-1.3,0-2.5,0.4-3.6,1.1c-0.2,0.1-0.2,0.4-0.1,0.6c0.1,0.2,0.4,0.2,0.6,0.1c0.9-0.6,2-0.9,3.1-0.9
			C774.4,485.2,776,485.9,777.1,487.3z"/>
		<path class="st1" d="M763.8,484.3c-3.5,0-6.4,2.9-6.4,6.4c0,0.2,0.2,0.4,0.4,0.4s0.4-0.2,0.4-0.4c0-3.1,2.5-5.6,5.6-5.6
			c3.1,0,5.6,2.5,5.6,5.6c0,0.2,0.2,0.4,0.4,0.4s0.4-0.2,0.4-0.4C770.1,487.2,767.3,484.3,763.8,484.3z"/>
		<path class="st1" d="M778.7,488.1c-2.2,0-3.9,1.8-3.9,3.9s1.8,3.9,3.9,3.9c2.2,0,3.9-1.8,3.9-3.9S780.8,488.1,778.7,488.1z
			 M778.7,495.2c-1.7,0-3.1-1.4-3.1-3.1s1.4-3.1,3.1-3.1c1.7,0,3.1,1.4,3.1,3.1S780.4,495.2,778.7,495.2z"/>
		<path class="st1" d="M780,491.7h-0.9v-0.9c0-0.2-0.2-0.4-0.4-0.4c-0.2,0-0.4,0.2-0.4,0.4v0.9h-0.9c-0.2,0-0.4,0.2-0.4,0.4
			s0.2,0.4,0.4,0.4h0.9v0.9c0,0.2,0.2,0.4,0.4,0.4c0.2,0,0.4-0.2,0.4-0.4v-0.9h0.9c0.2,0,0.4-0.2,0.4-0.4S780.3,491.7,780,491.7z"/>
	</g>
</g>
</svg>
