<?xml version="1.0" encoding="utf-8"?>
<!-- Generator: Adobe Illustrator 19.2.1, SVG Export Plug-In . SVG Version: 6.00 Build 0)  -->
<svg version="1.1" id="Capa_1" xmlns="http://www.w3.org/2000/svg" xmlns:xlink="http://www.w3.org/1999/xlink" x="0px" y="0px"
	 viewBox="0 0 512 512" style="enable-background:new 0 0 512 512;" xml:space="preserve">
<style type="text/css">
	.st0{fill:#3F3F3F;}
</style>
<g>
	<path class="st0" d="M252.1,247.5h8.7v2c0,0.2,0.1,0.3,0.3,0.3c0.2,0,0.3-0.1,0.3-0.3v-2.4v0v0v-0.9c0-0.2-0.1-0.3-0.3-0.3
		c-0.2,0-0.3,0.1-0.3,0.3v0.5h-8.7c-0.2,0-0.3,0.1-0.3,0.3S252,247.5,252.1,247.5z"/>
	<path class="st0" d="M264.6,246.9h-2.2c-0.2,0-0.3,0.1-0.3,0.3s0.1,0.3,0.3,0.3h1.8v4.1h-16.6v-4.1h2.8v2c0,0.2,0.1,0.3,0.3,0.3
		s0.3-0.1,0.3-0.3v-3.2c0-0.2-0.1-0.3-0.3-0.3s-0.3,0.1-0.3,0.3v0.5h-3.1c-0.2,0-0.3,0.1-0.3,0.3v15.9c0,0.2,0.1,0.3,0.3,0.3h14.2
		c0,0,0,0,0,0c0,0,0,0,0,0c0,0,0,0,0,0c0,0,0,0,0,0c0,0,0,0,0,0c0,0,0,0,0,0c0,0,0,0,0,0c0,0,0,0,0,0c0,0,0,0,0,0c0,0,0,0,0,0
		c0,0,0,0,0,0c0,0,0,0,0,0c0,0,0,0,0,0c0,0,0,0,0,0c0,0,0,0,0,0l3-3c0,0,0,0,0,0c0,0,0,0,0,0c0,0,0,0,0,0c0,0,0,0,0,0c0,0,0,0,0,0
		c0,0,0,0,0,0c0,0,0,0,0,0c0,0,0,0,0,0c0,0,0,0,0,0c0,0,0,0,0,0c0,0,0,0,0,0c0,0,0,0,0,0c0,0,0,0,0,0c0,0,0,0,0,0c0,0,0,0,0,0v-12.9
		C264.9,247,264.8,246.9,264.6,246.9z M247.7,252.2h16.6v7.5h-2.7c-0.2,0-0.3,0.1-0.3,0.3v2.7h-13.5V252.2z M263.8,260.4l-1.9,1.9
		v-1.9H263.8z"/>
	<path class="st0" d="M264.6,265.4h-17.2c-0.2,0-0.3,0.1-0.3,0.3s0.1,0.3,0.3,0.3h17.2c0.2,0,0.3-0.1,0.3-0.3
		S264.8,265.4,264.6,265.4z"/>
	<path class="st0" d="M264.6,261.1c-0.2,0-0.3,0.1-0.3,0.3v2.7h-16.6V264c0-0.2-0.1-0.3-0.3-0.3c-0.2,0-0.3,0.1-0.3,0.3v0.4
		c0,0.2,0.1,0.3,0.3,0.3h17.2c0.2,0,0.3-0.1,0.3-0.3v-3C264.9,261.2,264.8,261.1,264.6,261.1z"/>
	<path class="st0" d="M258.4,254.9c-0.1,0-0.3,0-0.4,0.1l-0.9,0.9c-0.1,0.1-0.1,0.3,0,0.5c0.1,0.1,0.3,0.1,0.5,0l0.4-0.4v3.8
		c0,0.2,0.1,0.3,0.3,0.3s0.3-0.1,0.3-0.3v-4.6C258.6,255.1,258.5,255,258.4,254.9z"/>
	<path class="st0" d="M254.9,254.9c-0.8,0-1.5,0.7-1.5,1.5c0,0.2,0.1,0.3,0.3,0.3s0.3-0.1,0.3-0.3c0-0.5,0.4-0.9,0.9-0.9
		c0.5,0,0.9,0.4,0.9,0.9c0,0.4-0.2,0.7-0.5,0.8c-0.1,0.1-0.2,0.2-0.2,0.3s0.1,0.2,0.2,0.3c0.3,0.1,0.5,0.5,0.5,0.8
		c0,0.5-0.4,0.9-0.9,0.9c-0.5,0-0.9-0.4-0.9-0.9c0-0.2-0.1-0.3-0.3-0.3s-0.3,0.1-0.3,0.3c0,0.8,0.7,1.5,1.5,1.5
		c0.8,0,1.5-0.7,1.5-1.5c0-0.4-0.2-0.8-0.5-1.1c0.3-0.3,0.5-0.7,0.5-1.1C256.4,255.6,255.7,254.9,254.9,254.9z"/>
</g>
</svg>
